# xmcd
#
# Track frame offsets:
# 201
# 14828
# 25881
# 39746
# 49053
# 60060
# 68379
# 81281
# 105053
# 115304
# 127065
# 139360
# 151023
# 163238
# 176061
# 183689
# 194745
# 207254
# 219892
# 232904
#
# Disc length: 3329 seconds
#
#
# Revision: 0
# Processed by: cddbd v1.5.1PL0 Copyright (c) Steve Scherf et al.
# Submitted via: FreeRIP 2.941 
#
DISCID=160cff14
DTITLE=Reader's Digest Music - Country Roads Disk 2
DYEAR=2005
DGENRE=Country
TTITLE0=God Bless The U.S.A.
TTITLE1=America The Beautiful
TTITLE2=God Bless America
TTITLE3=This Land Is Your Land
TTITLE4=The Pledge Of Allegiance
TTITLE5=Star Spangled Banner
TTITLE6=Battle Hymn Of The Republic
TTITLE7=America, I Believe In You
TTITLE8=Dear Uncle Sam
TTITLE9=The Gettysburg Address
TTITLE10=The Cattle Call
TTITLE11=Mule Train
TTITLE12=Cool Water
TTITLE13=Tumbling Tumbleweeds
TTITLE14=The Ballad Of Davy Crockett
TTITLE15=Home On The Range
TTITLE16=Don't Fence Me In
TTITLE17=You Are My Sunshine
TTITLE18=Shenandoah
TTITLE19=(Ghost) Riders In The Sky
EXTD=
EXTT0=
EXTT1=
EXTT2=
EXTT3=
EXTT4=
EXTT5=
EXTT6=
EXTT7=
EXTT8=
EXTT9=
EXTT10=
EXTT11=
EXTT12=
EXTT13=
EXTT14=
EXTT15=
EXTT16=
EXTT17=
EXTT18=
EXTT19=
PLAYORDER=
